inDegrees=no
num_controls=7
num_derivatives=13
num_iterations=110
num_multipliers=7
num_parameters=0
num_slacks=7
num_states=26
objective=5.691967
objective_accelerations=0.740740
objective_balance=0.074272
objective_effort=0.708747
objective_height=4.074976
objective_ligament=0.093233
solver_duration=1147.713603
status=Solve_Succeeded
success=true
DataType=double
version=3
OpenSimVersion=4.4-2022-07-23-0e9fedc
endheader
time	/jointset/ground_pelvis/pelvis_tilt/value	/jointset/ground_pelvis/pelvis_tx/value	/jointset/ground_pelvis/pelvis_ty/value	/jointset/hip_l/hip_flexion_l/value	/jointset/hip_l/hip_adduction_l/value	/jointset/hip_l/hip_rotation_l/value	/jointset/back/lumbar_extension/value	/jointset/patellofemoral_l/patellar_flexion_l/value	/jointset/knee_l/knee_flexion_l/value	/jointset/knee_l/knee_adduction_l/value	/jointset/knee_l/knee_rotation_l/value	/jointset/ankle_l/ankle_angle_l/value	/jointset/subtalar_l/subtalar_angle_l/value	/jointset/ground_pelvis/pelvis_tilt/speed	/jointset/ground_pelvis/pelvis_tx/speed	/jointset/ground_pelvis/pelvis_ty/speed	/jointset/hip_l/hip_flexion_l/speed	/jointset/hip_l/hip_adduction_l/speed	/jointset/hip_l/hip_rotation_l/speed	/jointset/back/lumbar_extension/speed	/jointset/patellofemoral_l/patellar_flexion_l/speed	/jointset/knee_l/knee_flexion_l/speed	/jointset/knee_l/knee_adduction_l/speed	/jointset/knee_l/knee_rotation_l/speed	/jointset/ankle_l/ankle_angle_l/speed	/jointset/subtalar_l/subtalar_angle_l/speed	/forceset/tau_hip_flexion_l	/forceset/tau_hip_adduction_l	/forceset/tau_hip_rotation_l	/forceset/tau_knee_flexion_l	/forceset/tau_ankle_angle_l	/forceset/tau_subtalar_angle_l	/forceset/tau_lumbar_extension	lambda_cid13_p0	lambda_cid13_p1	lambda_cid13_p2	lambda_cid13_p3	lambda_cid13_p4	lambda_cid13_p5	lambda_cid14_p0	/jointset/ground_pelvis/pelvis_tilt/accel	/jointset/ground_pelvis/pelvis_tx/accel	/jointset/ground_pelvis/pelvis_ty/accel	/jointset/hip_l/hip_flexion_l/accel	/jointset/hip_l/hip_adduction_l/accel	/jointset/hip_l/hip_rotation_l/accel	/jointset/back/lumbar_extension/accel	/jointset/patellofemoral_l/patellar_flexion_l/accel	/jointset/knee_l/knee_flexion_l/accel	/jointset/knee_l/knee_adduction_l/accel	/jointset/knee_l/knee_rotation_l/accel	/jointset/ankle_l/ankle_angle_l/accel	/jointset/subtalar_l/subtalar_angle_l/accel	gamma_cid13_p0	gamma_cid13_p1	gamma_cid13_p2	gamma_cid13_p3	gamma_cid13_p4	gamma_cid13_p5	gamma_cid14_p0
0.5	-0.1586882385958459	-0.07714773355574306	0.6750297719007152	1.399675621882926	-0.3224019954894478	0.04716871491079771	-0.8658966508691607	1.374371345547885	1.374371345547874	-0.04348976981741565	-0.1745307330481773	0.2295471271569794	0.05143620182246429	-0.1720397350436447	-0.1016710249045055	-0.8839578269834296	2.686622884578145	0.07322876438207974	0.8423965507429676	-0.7153869612519335	2.791773181724237	2.791773181724248	0.2740711778907315	6.613536027203058e-06	0.4671404453694218	0.2725158769213918	-0.3684023726600272	-0.006924372319358337	-0.002315968969571159	-0.328812013627869	0.1074181916770467	0.0319411508037177	0.4121232510320981	-11.37354915345044	-11.15698447843234	0.4978601500247136	-20.95251944581493	-733.2229824135317	-67.8758548158083	-0.0423335009065755	1.306288361549131	1.272555636971574	-0.04274900582884793	-2.81866839697812	0.7362901437740709	-0.6210024153103332	3.141960900289815	-3.207675797008032	-3.207675797008074	-0.1954278288163437	0.00556013145153292	-1.888292937289157	0.3812520996527536	-1.426924658318193e-07	9.577559141915507e-08	2.262233414786128e-06	9.757084264513407e-09	-2.511394336883063e-07	1.657622328602529e-06	-3.601350911863266e-07
0.51	-0.160343118786485	-0.07810121091419139	0.6661901603551869	1.426398158843714	-0.3216335245245567	0.05556286290972977	-0.8728934343734435	1.402125322697671	1.40212532269769	-0.04076119668976266	-0.1745307301826879	0.2341228798008456	0.05417905471080597	-0.1589067862448935	-0.0890650252455769	-0.8837418247633795	2.657565871044264	0.08044955640059485	0.8363946825271356	-0.68398989430785	2.758665755900922	2.758665755900917	0.2716171885203383	-6.602047044564703e-06	0.4479178684737508	0.2759895592280349	-0.3763294831905114	-0.008222302265303207	-0.001673621853670414	-0.3364238274103455	0.1069803148487755	0.03028431436004791	0.4200069920736957	-12.15193221771537	-10.12724647123325	0.1350723941431203	-20.33244928499042	-742.0427504838193	-67.65637777543623	-0.04205212211886837	1.32119401559151	1.248531189255532	0.08712950663266107	-2.997048802274625	0.7122993337641476	-0.5957781806400184	3.135556386125017	-3.415683703547233	-3.415683703549624	-0.2744341714359479	-0.004389334207640953	-1.953034400898045	0.3203878342732527	-8.251037210700835e-08	1.044777557223441e-07	1.884952297766017e-06	-5.166886114153994e-08	-1.967177193758035e-07	1.476346940556471e-06	-3.022049207799927e-07
0.52	-0.1618657903138278	-0.07892984646427004	0.6573593797660015	1.452820559475025	-0.3207933805189059	0.06389579239532214	-0.8795768518493546	1.429537544043513	1.429537544043567	-0.03805797339188033	-0.1745307848592331	0.2385036478087169	0.05695463672983474	-0.1455980023840038	-0.07670266323056564	-0.882191635714897	2.626595618683125	0.08756337253406367	0.8301528480744903	-0.6527137555774701	2.723422020935445	2.723422020935425	0.2690012119385426	-4.894870959968548e-06	0.4281435181703975	0.279061703058804	-0.3842565937210031	-0.009520232211240241	-0.001031274737848088	-0.3440356411928239	0.1065424380205078	0.02862747791639119	0.4278907331152855	-12.94963692003789	-9.088796513111234	-0.2351887461773126	-19.71488299294204	-751.1022274662503	-67.51599414860929	-0.04170098551545843	1.341455373976915	1.22382810818807	0.2240883598575825	-3.201316162429773	0.7148949667648041	-0.6689956626729814	3.117775257549132	-3.634937625440383	-3.634937625440363	-0.227825271096828	0.008544683282837829	-1.998647618825683	0.3009444044779501	-2.991480266232636e-08	7.935534785363234e-08	1.492903179507966e-06	-1.139161185217468e-07	-1.503538997562043e-07	1.243186062905911e-06	-2.448225650015158e-07
0.53	-0.1632547206969662	-0.07963615965159884	0.6485507278339009	1.478923932549471	-0.3198824696653022	0.07216429638086765	-0.8859482755763812	1.456586926928923	1.456586926928962	-0.03538070578436333	-0.1745307216803229	0.2426842734403741	0.05975923080030004	-0.1321792193966482	-0.06460849800795965	-0.8793193487489722	2.593773189449333	0.09459789755222876	0.8234840431081184	-0.6216110479401304	2.686119550950379	2.686119550950371	0.2664427690756133	1.217818846335774e-05	0.4079200346018696	0.2817926388238185	-0.3914486116057171	-0.01086723283996694	-0.0003660972130028042	-0.3513284590282376	0.1060514390531108	0.02689099312117859	0.4350242940216342	-13.73261538490428	-8.008997355434499	-0.6227083787489199	-19.01690605368962	-759.4719951836412	-67.32130093026525	-0.04136123619353317	1.34339421596866	1.194902840950534	0.3516839581355065	-3.368600885686562	0.6944113322666627	-0.6755598888826859	3.100509800124002	-3.828109528018383	-3.828109528016462	-0.2713663412592068	-0.002227700539211344	-2.043401266204139	0.249331311080954	1.836131900112229e-08	4.890495122391759e-08	1.103506821966656e-06	-1.732336675078052e-07	-1.083386436844853e-07	9.610044401100503e-07	-1.850095740987957e-07
0.54	-0.1645092023592621	-0.08022299276437082	0.6397773757900951	1.504689902415211	-0.3189018775489323	0.08036416492170123	-0.8920098739703759	1.483253243545887	1.483253243545918	-0.03272932511497237	-0.1745305910343881	0.2466608237282787	0.06258916685812908	-0.1187082582151393	-0.05280664831920099	-0.8751316580560238	2.559114976942239	0.1014996250873609	0.8164257591312142	-0.5907486889708863	2.646808767246166	2.646808767246171	0.2638238243179596	8.598535435743657e-06	0.3873284494198259	0.2841301005315425	-0.3986406294904395	-0.01221423346867986	0.0002990803116861184	-0.3586212768636567	0.105560440085719	0.02515450832598874	0.4421578549279742	-14.53801617644128	-6.920390263624104	-1.017207167925574	-18.30491457404589	-768.1107309968779	-67.20419062615476	-0.04103961044258256	1.351891012807624	1.165365001418565	0.4871691052622995	-3.568472817089923	0.6883354701581853	-0.7468914647794593	3.069705523930094	-4.036600369269896	-4.03660036926989	-0.2399256500416724	0.004414140792681905	-2.072267941528903	0.2222495930198607	6.185847716192973e-08	1.255975851819942e-08	7.170454337289752e-07	-2.293098369939546e-07	-7.11345643040382e-08	6.245870992810915e-07	-1.225073698671257e-07
0.55	-0.1656289172186938	-0.08069333331968803	0.631052410091784	1.530100294663119	-0.3178528081415021	0.08849098533526009	-0.8977642268896381	1.509516712189758	1.509516712189767	-0.03010374796315853	-0.1745304334711761	0.2504300151272477	0.06544078372063977	-0.1052449942584371	-0.04131617810720849	-0.8696480511658315	2.52266772897362	0.108285836769363	0.8088831702911691	-0.560182195832751	2.60557605778838	2.605576057788386	0.2612629821609201	1.909367185120744e-05	0.3664834055599334	0.2861285625709486	-0.4050059281325432	-0.01361413696827622	0.0009697384706381311	-0.3655151306940036	0.1050786742019595	0.02337345442318128	0.4484645204961497	-15.29777688905137	-5.81527741778303	-1.420210212015861	-17.56710739532847	-775.9313923912404	-67.06092164357459	-0.04072870048709826	1.341985486066239	1.132628747186655	0.6109608786441566	-3.727225181770133	0.6694217142991334	-0.7662732408503761	3.041076066211428	-4.21292411197626	-4.21292411197587	-0.2684929427426761	-0.001093922368972728	-2.09455928942337	0.1788759425261735	9.962022688862074e-08	-2.830096957160797e-08	3.491384415296472e-07	-2.79971187790738e-07	-3.83615089364605e-08	2.651615116421426e-07	-6.104812202061887e-08
0.5600000000000001	-0.1666143111587669	-0.08105042102966586	0.6223886813419248	1.555137339552333	-0.3167367450778364	0.09654071373097237	-0.9032147239060287	1.535358590163464	1.535358590163454	-0.02750464512176765	-0.1745302631810835	0.2539899687513771	0.06831043149016965	-0.09184407434314285	-0.0301560792513216	-0.8628842683657793	2.484445505204116	0.1148983563344783	0.801007355561792	-0.5299775083963693	2.562490633212863	2.562490633212873	0.2585289622355799	1.114391086964213e-05	0.345480894451878	0.2877362819353609	-0.4113712267746552	-0.01501404046786491	0.001640396629530965	-0.3724089845243528	0.1045969083182031	0.0215924005203864	0.4547711860643168	-16.08228241225046	-4.70168696532193	-1.829298914538072	-16.80028229341045	-784.0412271560747	-66.99295943243935	-0.04043265070008589	1.339422204526097	1.099290730197411	0.7432042872343263	-3.923467977266751	0.6535970467808089	-0.8135366426458203	2.997344383579413	-4.407143392815897	-4.407143392815873	-0.2745612037018233	0.0007251613133118498	-2.103761391161557	0.1441010580211118	1.304994864943723e-07	-7.458034012232226e-08	3.496724576341996e-09	-3.241347561602825e-07	-1.090568238432586e-08	-1.218739721687934e-07	-8.404218363078208e-10
0.5700000000000001	-0.1674662161636559	-0.08129762384399526	0.6137989076534117	1.579783437824743	-0.315555323309669	0.1045093756058758	-0.9083651423370478	1.560760606829127	1.560760606829109	-0.02493298727411611	-0.1745300944703528	0.2573394943397143	0.07119446128346046	-0.07856827581950464	-0.01934555091996796	-0.8548652244830818	2.444489372443462	0.1213502958720488	0.7926654216636599	-0.5001829320557418	2.517627511026333	2.517627511026325	0.2557675858604245	1.85221871537701e-05	0.3244322011849123	0.2890061879238321	-0.4168978599798975	-0.01639468008042475	0.002288662538280843	-0.3787873592381478	0.1040609633547425	0.0197697721636647	0.4602296986799226	-16.83695344716207	-3.572150697882337	-2.244486621855458	-15.9966061451303	-791.2582873211298	-66.88139456736414	-0.04014851151427677	1.316946159506177	1.062703965471554	0.8620420918129721	-4.07440626847835	0.6356527062673523	-0.8534375317742319	2.959001122191272	-4.568681608933343	-4.568681608935917	-0.2821626250453949	8.339086611802975e-05	-2.104207680663976	0.1089475576894419	1.563274535637872e-07	-1.20939982758539e-07	-3.163433295131756e-07	-3.622153606430288e-07	1.305129658147953e-08	-5.16798443776814e-07	5.729547076783024e-08
